<svg width="144" height="144" viewBox="0 0 144 144" fill="none" xmlns="http://www.w3.org/2000/svg">
  <!-- Shield background -->
  <path d="M72 14L118 32V74C118 98.6667 98.6667 118 72 132C45.3333 118 26 98.6667 26 74V32L72 14Z" fill="#1A73E8" fill-opacity="0.8"/>
  <path d="M72 22L110 37V74C110 94 94 110 72 122C50 110 34 94 34 74V37L72 22Z" fill="white"/>
  
  <!-- Panda Face -->
  <circle cx="58" cy="60" r="14" fill="black"/>
  <circle cx="58" cy="60" r="8" fill="white"/>
  <circle cx="86" cy="60" r="14" fill="black"/>
  <circle cx="86" cy="60" r="8" fill="white"/>
  <ellipse cx="72" cy="84" rx="18" ry="14" fill="black"/>
  <ellipse cx="72" cy="88" rx="10" ry="6" fill="white"/>
  <ellipse cx="72" cy="60" rx="30" ry="26" fill="none" stroke="black" stroke-width="4"/>
  
  <!-- Key -->
  <circle cx="62" cy="102" r="6" fill="#1A73E8"/>
  <rect x="62" y="102" width="20" height="6" rx="2" fill="#1A73E8"/>
  <rect x="76" y="96" width="4" height="8" rx="1" fill="#1A73E8"/>
  <rect x="82" y="96" width="4" height="8" rx="1" fill="#1A73E8"/>
</svg>